<svg width="27" height="27" viewBox="0 0 27 27"  xmlns="http://www.w3.org/2000/svg">
<path d="M13.4999 26.4167C6.38284 26.4167 0.583252 20.6171 0.583252 13.5C0.583252 6.38292 6.38284 0.583336 13.4999 0.583336C20.617 0.583336 26.4166 5.80167 26.4166 12.2083C26.4166 16.4838 22.942 19.9583 18.6666 19.9583H16.3803C16.0187 19.9583 15.7345 20.2425 15.7345 20.6042C15.7345 20.7592 15.7991 20.9013 15.9024 21.0304C16.432 21.6375 16.7291 22.3996 16.7291 23.1875C16.7291 24.0439 16.3889 24.8653 15.7833 25.4709C15.1777 26.0765 14.3563 26.4167 13.4999 26.4167ZM13.4999 3.16667C7.80367 3.16667 3.16659 7.80375 3.16659 13.5C3.16659 19.1963 7.80367 23.8333 13.4999 23.8333C13.8616 23.8333 14.1458 23.5492 14.1458 23.1875C14.1417 23.02 14.0775 22.8595 13.9649 22.7354C13.4353 22.1413 13.1512 21.3792 13.1512 20.6042C13.1512 19.7477 13.4914 18.9264 14.097 18.3208C14.7026 17.7152 15.5239 17.375 16.3803 17.375H18.6666C21.5212 17.375 23.8333 15.0629 23.8333 12.2083C23.8333 7.2225 19.1962 3.16667 13.4999 3.16667Z" fill="#ffffff"/>
<path d="M6.39575 14.7917C7.4658 14.7917 8.33325 13.9242 8.33325 12.8542C8.33325 11.7841 7.4658 10.9167 6.39575 10.9167C5.3257 10.9167 4.45825 11.7841 4.45825 12.8542C4.45825 13.9242 5.3257 14.7917 6.39575 14.7917Z" fill="#ffffff"/>
<path d="M10.2708 9.625C11.3408 9.625 12.2083 8.75755 12.2083 7.6875C12.2083 6.61745 11.3408 5.75 10.2708 5.75C9.2007 5.75 8.33325 6.61745 8.33325 7.6875C8.33325 8.75755 9.2007 9.625 10.2708 9.625Z" fill="#ffffff"/>
<path d="M16.7292 9.625C17.7993 9.625 18.6667 8.75755 18.6667 7.6875C18.6667 6.61745 17.7993 5.75 16.7292 5.75C15.6592 5.75 14.7917 6.61745 14.7917 7.6875C14.7917 8.75755 15.6592 9.625 16.7292 9.625Z" fill="#ffffff"/>
<path d="M20.6042 14.7917C21.6743 14.7917 22.5417 13.9242 22.5417 12.8542C22.5417 11.7841 21.6743 10.9167 20.6042 10.9167C19.5342 10.9167 18.6667 11.7841 18.6667 12.8542C18.6667 13.9242 19.5342 14.7917 20.6042 14.7917Z" fill="#ffffff"/>
</svg>
