<svg width="27" height="22" viewBox="0 0 27 22" fill="none" xmlns="http://www.w3.org/2000/svg">
<path d="M13.4069 22V18.8833L21.3021 11.11L24.4676 14.2267L16.5724 22H13.4069ZM0 14.6667V11.7333H10.4276V14.6667H0ZM25.5103 13.2L22.3448 10.0833L23.4248 9.02C23.6979 8.75111 24.0455 8.61667 24.4676 8.61667C24.8897 8.61667 25.2372 8.75111 25.5103 9.02L26.5903 10.0833C26.8634 10.3522 27 10.6944 27 11.11C27 11.5256 26.8634 11.8678 26.5903 12.1367L25.5103 13.2ZM0 8.8V5.86667H16.3862V8.8H0ZM0 2.93333V0H16.3862V2.93333H0Z" fill="#ffffff"/>
</svg>
