<svg width="29" height="22" viewBox="0 0 29 22" fill="none" xmlns="http://www.w3.org/2000/svg">
<path d="M20.3333 9.66667V7H28.3333V9.66667H20.3333ZM10.9999 11C9.53325 11 8.2777 10.4778 7.23325 9.43333C6.18881 8.38889 5.66659 7.13333 5.66659 5.66667C5.66659 4.2 6.18881 2.94444 7.23325 1.9C8.2777 0.855555 9.53325 0.333332 10.9999 0.333332C12.4666 0.333332 13.7221 0.855555 14.7666 1.9C15.811 2.94444 16.3333 4.2 16.3333 5.66667C16.3333 7.13333 15.811 8.38889 14.7666 9.43333C13.7221 10.4778 12.4666 11 10.9999 11ZM0.333252 21.6667V17.9333C0.333252 17.1778 0.527919 16.4831 0.917252 15.8493C1.3057 15.2164 1.82214 14.7333 2.46659 14.4C3.84436 13.7111 5.24436 13.1942 6.66659 12.8493C8.08881 12.5053 9.53325 12.3333 10.9999 12.3333C12.4666 12.3333 13.911 12.5053 15.3333 12.8493C16.7555 13.1942 18.1555 13.7111 19.5333 14.4C20.1777 14.7333 20.6941 15.2164 21.0826 15.8493C21.4719 16.4831 21.6666 17.1778 21.6666 17.9333V21.6667H0.333252Z" fill="#fdfdfd"/>
</svg>
